<svg width="111" height="111" viewBox="0 0 111 111" fill="none" xmlns="http://www.w3.org/2000/svg">
<path d="M110.486 95.2839L95.2731 69.8324C94.6203 68.7391 93.4396 68.0698 92.1674 68.0698H83.4275L80.4084 65.0509C79.255 64.9991 78.1043 64.9126 76.9637 64.752L63.1793 78.5342L68.0709 83.4264V92.164C68.0709 93.4368 68.7399 94.6175 69.8335 95.2702L95.2872 110.485C96.7067 111.337 98.5278 111.114 99.7031 109.938L109.939 99.6998C111.112 98.5265 111.339 96.7074 110.486 95.2839Z" fill="white"/>
<path d="M109.327 19.2247C108.442 16.7452 105.252 15.9873 103.358 17.8816L88.5528 32.6891L80.0204 30.9831L78.3144 22.4506L93.1195 7.64557C94.9928 5.77721 94.2813 2.571 91.7764 1.67693C81.2899 -2.05848 69.4468 0.606606 61.5905 8.46289C54.2833 15.7676 51.4674 26.5223 54.1088 36.4191L22.9081 67.6226C11.6888 66.5707 0.00390625 76.0816 0.00390625 89.2826C0.00390625 101.258 9.74524 110.999 21.7204 110.999C34.8919 110.999 44.4347 99.3402 43.3804 88.095L74.5835 56.894C84.4805 59.54 95.2326 56.7195 102.538 49.415C110.396 41.5563 113.061 29.7057 109.327 19.2247ZM21.7204 96.5212C17.7288 96.5212 14.4816 93.274 14.4816 89.2824C14.4816 85.2907 17.7288 82.0435 21.7204 82.0435C25.7121 82.0435 28.9593 85.2907 28.9593 89.2824C28.9593 93.274 25.7123 96.5212 21.7204 96.5212Z" fill="white"/>
<path d="M46.7622 21.1692L28.7685 3.17551C24.5297 -1.0633 17.6356 -1.05073 13.4143 3.17551L3.17586 13.4116C-1.05862 17.6461 -1.05862 24.5337 3.17586 28.7684L27.3504 52.943L37.5869 42.705L15.5422 20.6597C14.1284 19.246 14.1284 16.9553 15.5422 15.5416C16.9559 14.1279 19.2466 14.1279 20.6603 15.5416L42.7046 37.5862L46.2508 34.0394C45.6396 29.7177 45.8417 25.3605 46.7622 21.1692Z" fill="white"/>
</svg>
