<svg width="93" height="100" viewBox="0 0 93 100" fill="none" xmlns="http://www.w3.org/2000/svg">
<path d="M53.8123 53.6704C62.0046 49.4938 65.2601 39.4668 61.0835 31.2746C56.9069 23.0823 46.8799 19.8268 38.6876 24.0034C30.4954 28.18 27.2398 38.207 31.4164 46.3992C33.0123 49.5294 35.5574 52.0746 38.6876 53.6704C28.4999 53.8869 20.3532 62.2061 20.35 72.3959V98.0499H72.15V72.3959C72.1467 62.2061 64 53.8869 53.8123 53.6704Z" fill="white"/>
<path d="M52.7319 53.6498C57.7404 50.8889 60.9071 45.6769 61.05 39.9598C60.9362 32.0762 54.4531 25.7777 46.5696 25.8917C46.463 25.8933 46.3566 25.8958 46.25 25.8998C38.616 25.6546 32.2286 31.6447 31.9837 39.2787C31.9766 39.5056 31.9747 39.7327 31.9786 39.9598C31.9169 45.5937 34.8931 50.8248 39.7681 53.6498C31.0571 53.8482 22.2 62.0286 22.2 71.2599V98.0498H70.3V71.2599C70.3 62.0286 61.4429 53.8482 52.7319 53.6498Z" fill="white"/>
<path d="M44.4 0H48.1V7.4H44.4V0Z" fill="white"/>
<path d="M62.6761 9.78816L67.9086 4.55566L70.5248 7.1718L65.2923 12.4043L62.6761 9.78816Z" fill="white"/>
<path d="M85.1 96.2002H92.5V99.9002H85.1V96.2002Z" fill="white"/>
<path d="M85.1 77.7002H92.5V81.4002H85.1V77.7002Z" fill="white"/>
<path d="M85.1 59.2002H92.5V62.9002H85.1V59.2002Z" fill="white"/>
<path d="M82.861 41.9667L89.8811 39.6255L91.0517 43.1359L84.0316 45.477L82.861 41.9667Z" fill="white"/>
<path d="M77.1147 22.7816L84.135 20.4404L85.3056 23.9508L78.2853 26.292L77.1147 22.7816Z" fill="white"/>
<path d="M21.9764 7.17401L24.5927 4.55811L29.8248 9.79106L27.2084 12.407L21.9764 7.17401Z" fill="white"/>
<path d="M0 96.2002H7.4V99.9002H0V96.2002Z" fill="white"/>
<path d="M0 77.7002H7.4V81.4002H0V77.7002Z" fill="white"/>
<path d="M0 59.2002H7.4V62.9002H0V59.2002Z" fill="white"/>
<path d="M1.45572 43.1346L2.62561 39.624L9.64613 41.9636L8.47624 45.4742L1.45572 43.1346Z" fill="white"/>
<path d="M7.19373 23.9547L8.36408 20.4443L15.3846 22.7848L14.2142 26.2952L7.19373 23.9547Z" fill="white"/>
</svg>
