<svg width="111" height="99" viewBox="0 0 111 99" fill="none" xmlns="http://www.w3.org/2000/svg">
<path d="M102.633 36.778L94.8486 10.8288C93.0736 4.91097 87.7315 0.9375 81.5562 0.9375H29.4436C23.2683 0.9375 17.9263 4.91098 16.1513 10.8288L8.36648 36.778C3.45086 38.9142 -8.01086e-05 43.8061 -8.01086e-05 49.5V77.25C-8.01086e-05 81.0812 3.10621 84.1875 6.93742 84.1875H6.93784L6.93742 91.1246C6.93742 94.9562 10.0433 98.0625 13.8749 98.0625H20.8128C24.644 98.0625 27.7503 94.9562 27.7503 91.125L27.7474 84.1875H83.2499L83.2495 91.1246C83.2495 94.9562 86.3554 98.0625 90.187 98.0625H97.1249C100.957 98.0625 104.062 94.9562 104.062 91.125V84.1879L104.06 84.1875H104.062C107.894 84.1875 111 81.0812 111 77.25V49.5C111 43.8061 107.549 38.9142 102.633 36.778L102.633 36.778ZM29.4434 14.8125H81.556L87.7999 35.625H23.1995L29.4434 14.8125H29.4434ZM27.7497 66.8438C23.9181 66.8438 20.8122 63.7375 20.8122 59.9062C20.8122 56.0746 23.9181 52.9688 27.7497 52.9688C31.5813 52.9688 34.6872 56.0746 34.6872 59.9062C34.6872 63.7375 31.5813 66.8438 27.7497 66.8438ZM83.2497 66.8438C79.4181 66.8438 76.3122 63.7375 76.3122 59.9062C76.3122 56.0746 79.4181 52.9688 83.2497 52.9688C87.0813 52.9688 90.1872 56.0746 90.1872 59.9062C90.1872 63.7375 87.0813 66.8438 83.2497 66.8438Z" fill="white"/>
</svg>
