<svg width="79" height="100" viewBox="0 0 79 100" fill="none" xmlns="http://www.w3.org/2000/svg">
<path d="M60.4418 12.4909C60.4418 15.4483 58.0454 17.844 55.0886 17.844C52.1319 17.844 49.7355 15.4483 49.7355 12.4909C49.7355 9.53479 52.1319 7.1377 55.0886 7.1377C58.0454 7.1377 60.4418 9.53479 60.4418 12.4909Z" fill="white"/>
<path d="M20.2222 99.9254H71.1482C74.4015 99.9226 77.2418 97.7216 78.0582 94.5723H22.8091C22.472 96.5653 21.5746 98.4223 20.2222 99.9254Z" fill="white"/>
<path d="M69.3638 5.35318C69.3638 2.3971 66.9667 0 64.0106 0H8.69516V94.5721C8.70284 97.1778 10.5856 99.3998 13.1558 99.8345C16.7141 99.3928 19.391 96.3739 19.4015 92.7877V91.0033H69.3638V5.35318ZM37.2454 24.9815V28.5503H17.6171V24.9815H37.2454ZM17.6171 23.1971V19.6283H21.1859V23.1971H17.6171ZM22.9703 23.1971V19.6283H37.2454V23.1971H22.9703ZM17.6171 17.8439V14.2751H37.2454V17.8439H17.6171ZM14.0483 10.7064H10.4796V7.13757H14.0483V10.7064ZM14.0483 5.35318H10.4796V1.78439H14.0483V5.35318ZM15.8327 5.35318V1.78439H19.4015V5.35318H15.8327ZM21.1859 74.9438H17.6171V71.375H21.1859V74.9438ZM21.1859 64.2374H17.6171V60.6686H21.1859V64.2374ZM21.1859 53.5311H17.6171V49.9623H21.1859V53.5311ZM21.1859 42.8254H17.6171V39.2566H21.1859V42.8254ZM60.4418 74.9438H22.9703V71.375H60.4418V74.9438ZM60.4418 64.2374H22.9703V60.6686H60.4418V64.2374ZM60.4418 53.5311H22.9703V49.9623H60.4418V53.5311ZM60.4418 42.8254H22.9703V39.2566H60.4418V42.8254ZM62.2262 17.8439V28.5503C62.2262 29.209 61.864 29.8134 61.2834 30.1239C60.7035 30.4345 59.9987 30.401 59.4516 30.0346L55.0886 27.1232L50.7257 30.0311C50.1786 30.3961 49.4752 30.431 48.8952 30.1211C48.3146 29.812 47.9525 29.2076 47.9511 28.5503V17.8439H47.9978C46.8164 16.3087 46.173 14.4273 46.1667 12.4907C46.1667 7.56395 50.1611 3.56878 55.0886 3.56878C60.0161 3.56878 64.0106 7.56395 64.0106 12.4907C64.0036 14.4273 63.3609 16.3087 62.1794 17.8439H62.2262Z" fill="white"/>
<path d="M51.5198 20.6562V25.2174L54.0984 23.4965C54.6978 23.0966 55.4794 23.0966 56.0789 23.4965L58.6574 25.2174V20.6562C56.3852 21.6653 53.7927 21.6653 51.5198 20.6562Z" fill="white"/>
<path d="M0 5.35345H5.12638V0.252197C2.61832 0.897007 0.656674 2.84958 0 5.35345Z" fill="white"/>
</svg>
