<svg width="111" height="111" viewBox="0 0 111 111" fill="none" xmlns="http://www.w3.org/2000/svg">
<path d="M107.04 65.3101H98.382L82.6044 92.8066H100.465L100.442 101.976L106.946 101.993L106.969 92.8064H111V86.3025H106.986L107.04 65.3101ZM100.483 86.3027H93.8351L100.512 74.6657L100.483 86.3027Z" fill="white"/>
<path d="M79.7685 85.6009C81.7832 82.7222 83.2507 79.6468 83.6402 76.1867C83.6402 70.2291 78.7933 65.382 72.8355 65.382C67.6842 65.382 63.2254 69.0467 62.2335 74.0959L61.6068 77.2869L67.9888 78.5404L68.6156 75.3494C69.0097 73.3425 70.7846 71.8856 72.8355 71.8856C75.1472 71.8856 77.0388 73.7189 77.1327 76.008C76.6962 78.1814 75.7285 80.0305 74.44 81.8713C67.3256 92.0363 64.2146 95.3656 64.1899 95.3918L63.2969 96.3288L63.2765 101.855L84.8812 101.921L84.9011 95.4174L72.6122 95.3799C74.3355 93.1604 76.6954 89.9919 79.7685 85.6009Z" fill="white"/>
<path d="M91.2881 52.2481C89.7363 35.023 75.9769 21.2661 58.7519 19.7139V26.3409H52.248V19.7147C35.0237 21.2672 21.2671 35.0238 19.7146 52.2481H26.3408V58.752H19.7137C21.266 75.977 35.0229 89.7364 52.248 91.2883V84.6593H58.7519V64.7252C57.7338 65.0851 56.6399 65.2831 55.5 65.2831C53.988 65.2831 52.5554 64.9379 51.2759 64.3231L44.7013 70.8977L40.1024 66.2987L46.677 59.7242C46.0619 58.4448 45.717 57.012 45.717 55.5001C45.717 51.2457 48.4478 47.6187 52.248 46.275V35.9071H58.7519V46.275C62.5522 47.6187 65.2829 51.2455 65.2829 55.5001C65.2829 56.64 65.085 57.734 64.7251 58.752H84.6591V52.2481H91.2881Z" fill="white"/>
<path d="M55.5 58.7791C57.311 58.7791 58.7791 57.311 58.7791 55.5C58.7791 53.689 57.311 52.2209 55.5 52.2209C53.689 52.2209 52.2209 53.689 52.2209 55.5C52.2209 57.311 53.689 58.7791 55.5 58.7791Z" fill="white"/>
<path d="M94.7444 16.2554C84.2618 5.77287 70.3246 0 55.5 0C40.6754 0 26.7382 5.77287 16.2556 16.2554C5.77287 26.7382 0 40.6754 0 55.5C0 70.3246 5.77287 84.2618 16.2556 94.7446C26.7382 105.227 40.6754 111 55.5 111H58.752V97.938H55.5C32.0996 97.938 13.062 78.9004 13.062 55.5C13.062 32.0996 32.0996 13.062 55.5 13.062C78.9004 13.062 97.938 32.0996 97.938 55.5V58.752H111V55.5C111 40.6754 105.227 26.7382 94.7444 16.2554Z" fill="white"/>
</svg>
