<svg width="65" height="65" viewBox="0 0 65 65" fill="none" xmlns="http://www.w3.org/2000/svg">
<g filter="url(#filter0_d)">
<path d="M42 26.7487H44.5C44.5 20.3362 39.6588 15.5 33.2375 15.5V18C38.315 18 42 21.6787 42 26.7487Z" fill="#28AF9F"/>
<path d="M33.25 22.9998C35.8787 22.9998 37 24.1211 37 26.7498H39.5C39.5 22.7186 37.2812 20.4998 33.25 20.4998V22.9998ZM37.5275 29.8036C37.2873 29.5853 36.9717 29.4688 36.6472 29.4789C36.3228 29.4889 36.015 29.6246 35.7887 29.8573L32.7975 32.9336C32.0775 32.7961 30.63 32.3448 29.14 30.8586C27.65 29.3673 27.1987 27.9161 27.065 27.2011L30.1387 24.2086C30.3718 23.9825 30.5077 23.6746 30.5177 23.3501C30.5277 23.0256 30.4111 22.7099 30.1925 22.4698L25.5737 17.3911C25.355 17.1503 25.0511 17.0042 24.7264 16.9839C24.4018 16.9636 24.082 17.0706 23.835 17.2823L21.1225 19.6086C20.9064 19.8255 20.7774 20.1141 20.76 20.4198C20.7412 20.7323 20.3837 28.1348 26.1237 33.8773C31.1312 38.8836 37.4037 39.2498 39.1312 39.2498C39.3837 39.2498 39.5387 39.2423 39.58 39.2398C39.8856 39.2227 40.1741 39.0931 40.39 38.8761L42.715 36.1623C42.9268 35.9155 43.0341 35.5958 43.014 35.2711C42.9939 34.9465 42.8481 34.6424 42.6075 34.4236L37.5275 29.8036Z" fill="#28AF9F"/>
</g>
<defs>
<filter id="filter0_d" x="-3" y="-2" width="70" height="70" filterUnits="userSpaceOnUse" color-interpolation-filters="sRGB">
<feFlood flood-opacity="0" result="BackgroundImageFix"/>
<feColorMatrix in="SourceAlpha" type="matrix" values="0 0 0 0 0 0 0 0 0 0 0 0 0 0 0 0 0 0 127 0"/>
<feOffset dy="5"/>
<feGaussianBlur stdDeviation="10"/>
<feColorMatrix type="matrix" values="0 0 0 0 0.155833 0 0 0 0 0.6875 0 0 0 0 0.6237 0 0 0 0.4 0"/>
<feBlend mode="normal" in2="BackgroundImageFix" result="effect1_dropShadow"/>
<feBlend mode="normal" in="SourceGraphic" in2="effect1_dropShadow" result="shape"/>
</filter>
</defs>
</svg>
