<svg width="104" height="116" viewBox="0 0 104 116" fill="none" xmlns="http://www.w3.org/2000/svg">
<path d="M103.113 64.0549C103.113 92.6279 80.0303 115.791 51.5565 115.791C23.0826 115.791 0 92.6279 0 64.0549C0 35.482 44.8028 -26.2441 51.5565 12.3191C58.3102 50.8823 103.113 35.482 103.113 64.0549Z" fill="#B9EEFF"/>
<path d="M56.6272 97.1967C35.6555 97.1967 18.5941 80.2329 18.5941 59.3812C18.5941 47.0418 28.1996 36.2315 36.6736 26.6944C39.592 23.4101 42.3485 20.3082 44.6501 17.2604C48.9923 11.5126 51.2603 8.21198 54.0654 2.65258C55.1304 0.54212 57.3119 -0.410773 59.7597 0.165412C65.9388 1.62034 75.102 13.2019 81.07 22.6782C85.1564 29.1653 94.6611 45.7278 94.6611 59.3812C94.6611 80.2329 77.599 97.1967 56.6272 97.1967ZM58.8617 5.85237C56.0075 11.4207 53.6276 14.8674 49.2339 20.6834C46.7951 23.9121 43.9662 27.0963 40.9702 30.4682C32.7879 39.6767 24.3265 49.199 24.3265 59.3812C24.3265 77.0895 38.8171 91.4971 56.628 91.4971C74.4382 91.4971 88.9287 77.0895 88.9287 59.3812C88.9287 50.7281 83.9966 37.8577 75.7352 24.9525C72.2574 19.5192 68.4485 14.5307 65.011 10.9068C61.851 7.57573 59.8149 6.26393 58.8617 5.85237ZM59.1899 5.20796C59.1891 5.2087 59.1884 5.20944 59.1884 5.21019C59.1884 5.20944 59.1891 5.2087 59.1899 5.20796Z" fill="url(#paint0_linear)"/>
<path d="M56.9929 82.8283C55.3908 82.8283 54.092 81.5736 54.092 80.0248C54.092 78.4767 55.3908 77.2212 56.9929 77.2212C66.1756 77.2212 73.6467 69.999 73.6467 61.1214C73.6467 59.5734 74.9454 58.3179 76.5468 58.3179C78.1489 58.3179 79.4477 59.5734 79.4477 61.1214C79.4477 73.0907 69.3738 82.8283 56.9929 82.8283Z" fill="#1A928D"/>
<defs>
<linearGradient id="paint0_linear" x1="56.6276" y1="0" x2="56.6276" y2="97.1967" gradientUnits="userSpaceOnUse">
<stop stop-color="#28AF9F"/>
<stop offset="1" stop-color="#046471"/>
</linearGradient>
</defs>
</svg>
