<svg width="229" height="274" viewBox="0 0 229 274" fill="none" xmlns="http://www.w3.org/2000/svg">
<path fill-rule="evenodd" clip-rule="evenodd" d="M0 264.051C0.764749 262.734 1.38731 261.316 1.84396 259.812L37.5233 142.333C38.6782 138.531 38.6741 134.47 37.5115 130.67L1.86363 14.149C1.40488 12.6495 0.781064 11.2348 0.0157739 9.92233C3.48479 3.98717 9.92425 0 17.295 0H172.739C181.531 0 189.292 5.74168 191.864 14.149L227.511 130.67C228.674 134.47 228.678 138.531 227.523 142.333L191.844 259.812C189.285 268.239 181.514 274 172.707 274H17.2949C9.91305 274 3.46524 270.001 0 264.051Z" fill="#B9EEFF"/>
</svg>
