<svg width="180" height="109" viewBox="0 0 180 109" fill="none" xmlns="http://www.w3.org/2000/svg">
<path d="M40.2902 0V107.274H1.52155V17.7924L40.2902 0Z" fill="url(#paint0_linear)"/>
<path d="M106.201 11.3808V107.274H40.2727V0L106.201 11.3808Z" fill="url(#paint1_linear)"/>
<path d="M62.7441 15.33L44.2744 12.5068V4.39771L62.7441 7.46719V15.33ZM83.6324 10.9324L66.5084 8.06525V15.9017L83.6324 18.5402V10.9324ZM102.982 14.1514L87.08 11.5129V19.0591L102.982 21.4777V14.1514ZM62.7441 19.3493L44.248 16.7108V24.8551L62.7177 27.2825L62.7441 19.3493ZM83.6324 22.3836L66.5084 19.8946V27.731L83.6324 29.9738V22.3836ZM102.982 25.1981L87.124 22.8674V30.4311L103.026 32.5419L102.982 25.1981ZM62.7001 31.2579L44.2304 28.9624V37.1154L62.7001 39.147V31.2579ZM83.5884 33.8964L66.5084 31.724V39.578L83.6324 41.4602L83.5884 33.8964ZM102.938 36.2974L87.124 34.301V41.8471L103.026 43.6062L102.938 36.2974ZM62.6561 43.2192L44.1865 41.3106V49.4637L62.6561 51.1084V43.2192ZM83.5444 45.3652L66.4204 43.6062V51.4426L83.5444 52.9553V45.3652ZM102.894 47.3529L87.124 45.673V53.228L103.026 54.6352L102.894 47.3529ZM62.6121 55.1277L44.1425 53.6149V61.768L62.6121 63.0169V55.1277ZM83.5005 56.8339L66.5084 55.4091V63.2456L83.6324 64.3801L83.5005 56.8339ZM102.85 58.4171L87.124 57.0714V64.6176L103.026 65.6906L102.85 58.4171ZM62.5682 67.0362L44.0985 65.9193V74.0723L62.5682 74.9518V67.0362ZM83.4565 68.3027L66.5084 67.2209V75.0573L83.6324 75.8489L83.4565 68.3027ZM102.806 69.4725L87.124 68.4698V76.016L103.026 76.7548L102.806 69.4725ZM62.7441 78.9096L44.2744 78.1796V86.3326L62.7441 86.7988V78.9096ZM83.6324 79.7275L66.5084 79.0503V86.8955L83.6324 87.3265V79.7275ZM102.982 80.4839L87.124 79.8595V87.4056L103.026 87.8102L102.982 80.4839ZM62.7001 90.7126L44.2304 90.3784V98.505L62.7001 98.5842V90.7126ZM83.5884 91.0908L66.4644 90.7829V98.6193L83.5884 98.6897V91.0908ZM102.938 91.4426L87.0361 91.1523V98.7073L102.938 98.7689V91.4426Z" fill="url(#paint2_linear)"/>
<path d="M44.2481 5.10109L62.1109 8.07383V15.233L62.7441 15.3298V7.43179L44.2481 4.3623V5.10109Z" fill="#727477"/>
<path d="M66.5083 91.4248L82.9991 91.7238V98.6895H83.6323V91.0905L66.5083 90.7827V91.4248Z" fill="#727477"/>
<path d="M66.5083 56.0774L82.9991 57.423V64.3447L83.6323 64.3799V56.7898L66.5083 55.3914V56.0774Z" fill="#727477"/>
<path d="M66.5083 79.7185L82.9991 80.3605V87.3086L83.6323 87.3174V79.7273L66.5083 79.0588V79.7185Z" fill="#727477"/>
<path d="M44.2481 17.3877L62.1109 19.9822V27.1502L62.7441 27.2382V19.349L44.2481 16.6665V17.3877Z" fill="#727477"/>
<path d="M66.5083 67.8979L82.9991 68.8918V75.8223L83.6323 75.8575V68.2585L66.5083 67.2207V67.8979Z" fill="#727477"/>
<path d="M44.2481 66.5522L62.1109 67.6252V74.8548L62.7441 74.8812V66.992L44.2481 65.875V66.5522Z" fill="#727477"/>
<path d="M44.2481 29.6833L62.1109 31.8909V39.0765L62.7441 39.1468V31.2577L44.2481 28.9709V29.6833Z" fill="#727477"/>
<path d="M44.2481 91.0202L62.1109 91.3456V98.6016H62.7441V90.7124L44.2481 90.3782V91.0202Z" fill="#727477"/>
<path d="M44.2481 78.8388L62.1109 79.5424V86.7808L62.7441 86.7984V78.9092L44.2481 78.1792V78.8388Z" fill="#727477"/>
<path d="M44.2481 54.2654L62.1109 55.7166V62.9285L62.7441 62.9725V55.0833L44.2481 53.5706V54.2654Z" fill="#727477"/>
<path d="M44.2481 41.97L62.1109 43.8081V51.0025L62.7441 51.0641V43.1749L44.2481 41.2664V41.97Z" fill="#727477"/>
<path d="M87.1241 91.8029L102.392 92.0756V98.7686H103.026V91.4423L87.1241 91.1521V91.8029Z" fill="#727477"/>
<path d="M87.1241 46.3765L102.392 47.9508V54.5823L103.026 54.635V47.3087L87.1241 45.6816V46.3765Z" fill="#727477"/>
<path d="M87.1241 34.9956L102.392 36.8865V43.5092L103.026 43.5796V36.2533L87.1241 34.2832V34.9956Z" fill="#727477"/>
<path d="M87.1241 11.4951V12.2339L102.392 14.7757V21.3632L103.026 21.4599V14.1336L87.1241 11.4951Z" fill="#727477"/>
<path d="M87.1241 23.6148L102.392 25.8311V32.4362L103.026 32.5242V25.1979L87.1241 22.8848V23.6148Z" fill="#727477"/>
<path d="M87.1241 57.7571L102.392 59.006V65.6462L103.026 65.6902V58.3639L87.1241 57.071V57.7571Z" fill="#727477"/>
<path d="M66.5083 44.2568L82.9991 45.9543V52.8584L83.6323 52.9112V45.321L66.5083 43.5532V44.2568Z" fill="#727477"/>
<path d="M66.5083 20.6245L82.9991 23.0168V29.8945L83.6323 29.9737V22.3835L66.5083 19.8945V20.6245Z" fill="#727477"/>
<path d="M66.5083 32.4363L82.9991 34.4855V41.3809L83.6323 41.4424V33.8523L66.5083 31.7239V32.4363Z" fill="#727477"/>
<path d="M87.1241 80.519L102.392 81.1171V87.7925L103.026 87.8101V80.4838L87.1241 79.8594V80.519Z" fill="#727477"/>
<path d="M66.5083 8.80397L82.9991 11.548V18.4082L83.6323 18.5049V10.9148L66.5083 8.06519V8.80397Z" fill="#727477"/>
<path d="M87.1241 69.1382L102.392 70.0616V76.7195L103.026 76.7547V69.4284L87.1241 68.4697V69.1382Z" fill="#727477"/>
<path d="M12.6297 23.1048L4.29199 26.4821V19.6131L12.6297 15.928V23.1048Z" fill="#727477"/>
<path d="M23.8083 10.9851L14.4943 15.1012V22.3483L23.8083 18.5841V10.9851Z" fill="#727477"/>
<path d="M36.35 5.44409L25.8927 10.0703V17.7396L36.35 13.5004V5.44409Z" fill="#727477"/>
<path d="M12.6297 26.7458L4.29199 29.9736V36.8338L12.6297 33.9314V26.7458Z" fill="#727477"/>
<path d="M23.8083 22.4363L14.4943 26.0335V33.2806L23.8083 30.0264V22.4363Z" fill="#727477"/>
<path d="M36.35 17.5901L25.8927 21.627V29.3051L36.35 25.6552V17.5901Z" fill="#727477"/>
<path d="M12.6297 37.5725L4.29199 40.3254V47.1943L12.6297 44.7493V37.5725Z" fill="#727477"/>
<path d="M23.8083 33.8875L14.4943 36.9569V44.2041L23.8083 41.4776V33.8875Z" fill="#727477"/>
<path d="M36.35 29.7451L25.8927 33.1928V40.8709L36.35 37.8014V29.7451Z" fill="#727477"/>
<path d="M12.6297 48.3992L4.29199 50.6859V57.5461L12.6297 55.576V48.3992Z" fill="#727477"/>
<path d="M23.8083 45.3386L14.4943 47.8892V55.1363L23.8083 52.9288V45.3386Z" fill="#727477"/>
<path d="M36.35 41.8997L25.8927 44.7669V52.4362L36.35 49.9559V41.8997Z" fill="#727477"/>
<path d="M12.6297 59.2173L4.29199 61.0379V67.9068L12.6297 66.3941V59.2173Z" fill="#727477"/>
<path d="M23.8083 56.781L14.4943 58.8127V66.0598L23.8083 64.38V56.781Z" fill="#727477"/>
<path d="M36.35 54.0459L25.8927 56.3326V64.0019L36.35 62.111V54.0459Z" fill="#727477"/>
<path d="M12.6297 70.0439L4.29199 71.3896V78.2585L12.6297 77.2207V70.0439Z" fill="#727477"/>
<path d="M23.8083 68.2322L14.4943 69.7449V76.9833L23.8083 75.8223V68.2322Z" fill="#727477"/>
<path d="M36.35 66.2007L25.8927 67.8893V75.5674L36.35 74.257V66.2007Z" fill="#727477"/>
<path d="M12.6297 80.8621L4.29199 81.7504V88.6193L12.6297 88.0476V80.8621Z" fill="#727477"/>
<path d="M23.8083 79.6833L14.4943 80.6684V87.9155L23.8083 87.2735V79.6833Z" fill="#727477"/>
<path d="M36.35 78.3464L25.8927 79.4634V87.1327L36.35 86.4115V78.3464Z" fill="#727477"/>
<path d="M12.6297 91.6887L4.29199 92.1021V98.971L12.6297 98.8655V91.6887Z" fill="#727477"/>
<path d="M23.8083 91.126L14.4943 91.5921V108.329L23.8083 108.206V91.126Z" fill="#727477"/>
<path d="M36.35 90.5012L25.8927 91.0289V98.6982L36.35 98.5575V90.5012Z" fill="#727477"/>
<path d="M26.3852 79.9559L36.35 78.9005V78.3464L25.8927 79.4634V87.1327L26.3852 87.0975V79.9559Z" fill="#565759"/>
<path d="M14.9956 15.6025L23.8083 11.7063V10.9851L14.4943 15.1012V22.3483L14.9956 22.1461V15.6025Z" fill="#565759"/>
<path d="M14.9956 48.3817L23.8083 45.9719V45.3386L14.4943 47.8892V55.1363L14.9956 55.0132V48.3817Z" fill="#565759"/>
<path d="M14.9956 26.526L23.8083 23.1223V22.4363L14.4943 26.0335V33.2806L14.9956 33.1047V26.526Z" fill="#565759"/>
<path d="M14.9956 37.4583L23.8083 34.5471V33.8875L14.4943 36.9569V44.2041L14.9956 44.0634V37.4583Z" fill="#565759"/>
<path d="M26.3852 68.3907L36.35 66.7812V66.2007L25.8927 67.8893V75.5674L26.3852 75.5059V68.3907Z" fill="#565759"/>
<path d="M26.3852 22.1283L36.35 18.2849V17.5901L25.8927 21.627V29.3051L26.3852 29.1292V22.1283Z" fill="#565759"/>
<path d="M26.3852 10.5628L36.35 6.15649V5.44409L25.8927 10.0703V17.7396L26.3852 17.5373V10.5628Z" fill="#565759"/>
<path d="M26.3852 33.6941L36.35 30.4047V29.7451L25.8927 33.1928V40.8709L26.3852 40.7214V33.6941Z" fill="#565759"/>
<path d="M14.9956 59.314L23.8083 57.3879V56.781L14.4943 58.8127V66.0598L14.9956 65.9719V59.314Z" fill="#565759"/>
<path d="M26.3852 45.2594L36.35 42.5329V41.8997L25.8927 44.7669V52.4362L26.3852 52.313V45.2594Z" fill="#565759"/>
<path d="M26.3852 56.8251L36.35 54.6528V54.0459L25.8927 56.3326V64.0019L26.3852 63.9052V56.8251Z" fill="#565759"/>
<path d="M4.79331 51.1784L12.6297 49.0324V48.3992L4.29199 50.6859V57.5461L4.79331 57.4317V51.1784Z" fill="#565759"/>
<path d="M4.79331 92.6034L12.6297 92.2076V91.6887L4.29199 92.1021V98.971H4.79331V92.6034Z" fill="#565759"/>
<path d="M4.79331 82.2517L12.6297 81.4161V80.8621L4.29199 81.7504V88.6193L4.79331 88.5841V82.2517Z" fill="#565759"/>
<path d="M4.79331 71.8909L12.6297 70.6244V70.0439L4.29199 71.3896V78.2585L4.79331 78.197V71.8909Z" fill="#565759"/>
<path d="M26.3852 91.5214L36.35 91.0201V90.5012L25.8927 91.0289V98.6982L26.3852 98.6894V91.5214Z" fill="#565759"/>
<path d="M14.9956 92.0934L23.8083 91.6537V91.126L14.4943 91.5921V108.329L14.9956 108.32V92.0934Z" fill="#565759"/>
<path d="M14.9956 70.2375L23.8083 68.8126V68.2322L14.4943 69.7449V76.9833L14.9956 76.9217V70.2375Z" fill="#565759"/>
<path d="M14.9956 81.1609L23.8083 80.2286V79.6833L14.4943 80.6684V87.9155L14.9956 87.8804V81.1609Z" fill="#565759"/>
<path d="M4.79331 20.1056L12.6297 16.6404V15.928L4.29199 19.6131V26.4821L4.79331 26.2798V20.1056Z" fill="#565759"/>
<path d="M4.79331 61.5392L12.6297 59.8241V59.2173L4.29199 61.0379V67.9068L4.79331 67.8189V61.5392Z" fill="#565759"/>
<path d="M4.79331 30.4662L12.6297 27.4407V26.7458L4.29199 29.9736V36.8338L4.79331 36.6667V30.4662Z" fill="#565759"/>
<path d="M4.79331 40.8179L12.6297 38.2321V37.5725L4.29199 40.3254V47.1943L4.79331 47.0448V40.8179Z" fill="#565759"/>
<path d="M41.1522 105.277H0V108.479H41.1522V105.277Z" fill="#727477"/>
<path d="M107.098 105.277H41.0379V108.479H107.098V105.277Z" fill="url(#paint3_linear)"/>
<path d="M113.193 0V107.274H74.4151V17.7924L113.193 0Z" fill="url(#paint4_linear)"/>
<path d="M179.094 11.3808V107.274H113.175V0L179.094 11.3808Z" fill="url(#paint5_linear)"/>
<path d="M135.646 15.33L117.177 12.5068V4.39771L135.646 7.46719V15.33ZM156.535 10.9324L139.411 8.06525V15.9017L156.552 18.4698L156.535 10.9324ZM175.902 14.1339L160 11.4953V19.0415L175.902 21.4602V14.1339ZM135.646 19.3493L117.177 16.6668V24.8111L135.646 27.2385V19.3493ZM156.552 22.3836L139.428 19.8946V27.731L156.552 29.9738V22.3836ZM175.902 25.1981L160.07 22.8674V30.4311L175.902 32.5419V25.1981ZM135.62 31.2579L117.15 28.9624V37.1154L135.62 39.147V31.2579ZM156.508 33.8964L139.384 31.768V39.578L156.552 41.4426L156.508 33.8964ZM175.902 36.2535L160.07 34.301V41.8471L175.972 43.6062L175.902 36.2535ZM135.62 43.1752L117.15 41.2667V49.4197L135.62 51.0644V43.1752ZM156.552 45.3212L139.428 43.5622V51.3986L156.552 52.9113V45.3212ZM175.902 47.3089L160.07 45.673V53.228L175.902 54.6352V47.3089ZM135.62 55.0837L117.15 53.571V61.724L135.62 62.9729V55.0837ZM156.552 56.79L139.411 55.4091V63.2456L156.552 64.3801V56.79ZM175.902 58.3731L160.07 57.0714V64.6176L175.902 65.6906V58.3731ZM135.62 66.9923L117.15 65.8753V74.0283L135.62 74.9078V66.9923ZM156.552 68.2587L139.428 67.2209V75.0573L156.552 75.8489V68.2587ZM175.902 69.4285L160.07 68.4698V76.016L175.972 76.7548L175.902 69.4285ZM135.62 78.9096L117.15 78.1796V86.3326L135.62 86.7988V78.9096ZM156.508 79.7275L139.384 79.0503V86.8955L156.508 87.3265V79.7275ZM175.902 80.4839L160.07 79.8595V87.4056L175.972 87.8102L175.902 80.4839ZM135.62 90.7126L117.15 90.3784V98.505L135.62 98.5842V90.7126ZM156.508 91.0908L139.384 90.7829V98.6193L156.508 98.6897V91.0908ZM175.902 91.4689L160.07 91.1523V98.7073L175.972 98.7689L175.902 91.4689Z" fill="url(#paint6_linear)"/>
<path d="M117.142 5.10109L135.004 8.07383V15.233L135.646 15.3298V7.43179L117.142 4.3623V5.10109Z" fill="#727477"/>
<path d="M139.411 91.4248L155.902 91.7238V98.6895H156.535V91.0905L139.411 90.7827V91.4248Z" fill="#727477"/>
<path d="M139.411 56.0774L155.902 57.423V64.3447L156.535 64.3799V56.7898L139.411 55.3914V56.0774Z" fill="#727477"/>
<path d="M139.411 79.7185L155.902 80.3605V87.3086L156.535 87.3174V79.7273L139.411 79.0588V79.7185Z" fill="#727477"/>
<path d="M117.142 17.3877L135.004 19.9822V27.1502L135.646 27.2382V19.349L117.142 16.6665V17.3877Z" fill="#727477"/>
<path d="M139.411 67.8979L155.902 68.8918V75.8223L156.535 75.8575V68.2585L139.411 67.2207V67.8979Z" fill="#727477"/>
<path d="M117.142 66.5522L135.004 67.6252V74.8548L135.646 74.8812V66.992L117.142 65.875V66.5522Z" fill="#727477"/>
<path d="M117.142 29.6833L135.004 31.8909V39.0765L135.646 39.1468V31.2577L117.142 28.9709V29.6833Z" fill="#727477"/>
<path d="M117.142 91.0202L135.004 91.3456V98.6016H135.646V90.7124L117.142 90.3782V91.0202Z" fill="#727477"/>
<path d="M117.142 78.8388L135.004 79.5424V86.7808L135.646 86.7984V78.9092L117.142 78.1792V78.8388Z" fill="#727477"/>
<path d="M117.142 54.2654L135.004 55.7166V62.9285L135.646 62.9725V55.0833L117.142 53.5706V54.2654Z" fill="#727477"/>
<path d="M117.142 41.97L135.004 43.8081V51.0025L135.646 51.0641V43.1749L117.142 41.2664V41.97Z" fill="#727477"/>
<path d="M160.026 91.8029L175.295 92.0756V98.7686H175.928V91.4423L160.026 91.1521V91.8029Z" fill="#727477"/>
<path d="M160.026 46.3765L175.295 47.9508V54.5823L175.928 54.635V47.3087L160.026 45.6816V46.3765Z" fill="#727477"/>
<path d="M160.026 34.9956L175.295 36.8865V43.5092L175.928 43.5796V36.2533L160.026 34.2832V34.9956Z" fill="#727477"/>
<path d="M160.026 11.4951V12.2339L175.295 14.7757V21.3632L175.928 21.4599V14.1336L160.026 11.4951Z" fill="#727477"/>
<path d="M160.026 23.6148L175.295 25.8311V32.4362L175.928 32.5242V25.1979L160.026 22.8848V23.6148Z" fill="#727477"/>
<path d="M160.026 57.7571L175.295 59.006V65.6462L175.928 65.6902V58.3639L160.026 57.071V57.7571Z" fill="#727477"/>
<path d="M139.411 44.2568L155.902 45.9543V52.8584L156.535 52.9112V45.321L139.411 43.5532V44.2568Z" fill="#727477"/>
<path d="M139.411 20.6245L155.902 23.0168V29.8945L156.535 29.9737V22.3835L139.411 19.8945V20.6245Z" fill="#727477"/>
<path d="M139.411 32.4363L155.902 34.4855V41.3809L156.535 41.4424V33.8523L139.411 31.7239V32.4363Z" fill="#727477"/>
<path d="M160.026 80.519L175.295 81.1171V87.7925L175.928 87.8101V80.4838L160.026 79.8594V80.519Z" fill="#727477"/>
<path d="M139.411 8.80397L155.902 11.548V18.4082L156.535 18.5049V10.9148L139.411 8.06519V8.80397Z" fill="#727477"/>
<path d="M160.026 69.1382L175.295 70.0616V76.7195L175.928 76.7547V69.4284L160.026 68.4697V69.1382Z" fill="#727477"/>
<path d="M85.5321 23.1046L77.1943 26.4819V19.613L85.5321 15.9278V23.1046ZM96.7458 10.985L87.3966 15.1011V22.3482L96.7458 18.5839V10.985ZM109.288 5.44409L98.8302 10.0615V17.7396L109.288 13.5004V5.44409ZM85.5409 26.7458L77.2031 29.9648V36.8337L85.5409 33.9313V26.7458ZM96.7106 22.4362L87.3966 26.0334V33.2805L96.7458 30.0263L96.7106 22.4362ZM109.244 17.5901L98.7863 21.627V29.3051L109.244 25.6552V17.5901ZM85.4969 37.5725L77.1592 40.3254V47.1943L85.4969 44.7493V37.5725ZM96.7458 33.8874L87.3966 36.9393V44.1864L96.7458 41.4775V33.8874ZM109.288 29.7449L98.8302 33.1926V40.8707L109.244 37.8188L109.288 29.7449ZM85.5321 48.3729L77.1943 50.6508V57.5197L85.5321 55.5496V48.3729ZM96.7458 45.3298L87.3966 47.8891V55.1363L96.7458 52.9287V45.3298ZM109.288 41.8997L98.7863 44.7669V52.4362L109.244 49.956L109.288 41.8997ZM85.5409 59.2172L77.1943 61.0378V67.9067L85.5321 66.394L85.5409 59.2172ZM96.7458 56.7809L87.3966 58.8126V66.0597L96.7458 64.3799V56.7809ZM109.288 54.0457L98.8302 56.3324V64.0017L109.288 62.1108V54.0457ZM85.5409 70.0439L77.2031 71.3896V78.2761L85.5409 77.2383V70.0439ZM96.7458 68.2321L87.3966 69.7361V76.9832L96.7458 75.8223V68.2321ZM109.288 66.2005L98.7863 67.8979V75.5672L109.244 74.2568L109.288 66.2005ZM85.5409 80.8619L77.2031 81.7414V88.6103L85.5409 88.0386V80.8619ZM96.7458 79.6833L87.3966 80.6684V87.9507L96.7458 87.2735V79.6833ZM109.288 78.3465L98.8302 79.4634V87.1327L109.288 86.4115V78.3465ZM85.5409 91.6886L77.2031 92.102V98.9709L85.5409 98.8654V91.6886ZM96.7106 91.1257L87.4054 91.5919V98.839L96.7106 98.7247V91.1257ZM109.252 90.5013L98.795 91.029V98.6983L109.252 98.5575V90.5013Z" fill="#727477"/>
<path d="M99.2876 79.9559L109.244 78.9005V78.3464L98.7862 79.4634V87.1327L99.2876 87.0975V79.9559Z" fill="#565759"/>
<path d="M87.8892 15.6025L96.7018 11.7063V10.9851L87.3967 15.1012V22.3483L87.8892 22.1461V15.6025Z" fill="#565759"/>
<path d="M87.8892 48.3817L96.7018 45.9719V45.3386L87.3967 47.8892V55.1363L87.8892 55.0132V48.3817Z" fill="#565759"/>
<path d="M87.8892 26.526L96.7018 23.1223V22.4363L87.3967 26.0335V33.2806L87.8892 33.1047V26.526Z" fill="#565759"/>
<path d="M87.8892 37.4583L96.7018 34.5471V33.8875L87.3967 36.9569V44.2041L87.8892 44.0634V37.4583Z" fill="#565759"/>
<path d="M99.2876 68.3907L109.244 66.7812V66.2007L98.7862 67.8893V75.5674L99.2876 75.5059V68.3907Z" fill="#565759"/>
<path d="M99.2876 22.1283L109.244 18.2849V17.5901L98.7862 21.627V29.3051L99.2876 29.1292V22.1283Z" fill="#565759"/>
<path d="M99.2876 10.5628L109.244 6.15649V5.44409L98.7862 10.0703V17.7396L99.2876 17.5373V10.5628Z" fill="#565759"/>
<path d="M99.2876 33.6941L109.244 30.4047V29.7451L98.7862 33.1928V40.8709L99.2876 40.7214V33.6941Z" fill="#565759"/>
<path d="M87.8892 59.314L96.7018 57.3879V56.781L87.3967 58.8127V66.0598L87.8892 65.9719V59.314Z" fill="#565759"/>
<path d="M99.2876 45.2594L109.244 42.5329V41.8997L98.7862 44.7669V52.4362L99.2876 52.313V45.2594Z" fill="#565759"/>
<path d="M99.2876 56.8251L109.244 54.6528V54.0459L98.7862 56.3326V64.0019L99.2876 63.9052V56.8251Z" fill="#565759"/>
<path d="M77.6869 51.1784L85.5321 49.0324V48.3992L77.1944 50.6859V57.5461L77.6869 57.4317V51.1784Z" fill="#565759"/>
<path d="M77.6869 92.6034L85.5321 92.2076V91.6887L77.1944 92.1021V98.971H77.6869V92.6034Z" fill="#565759"/>
<path d="M77.6869 82.2517L85.5321 81.4161V80.8621L77.1944 81.7504V88.6193L77.6869 88.5841V82.2517Z" fill="#565759"/>
<path d="M77.6869 71.8909L85.5321 70.6244V70.0439L77.1944 71.3896V78.2585L77.6869 78.197V71.8909Z" fill="#565759"/>
<path d="M99.2876 91.5214L109.244 91.0201V90.5012L98.7862 91.0289V98.6982L99.2876 98.6894V91.5214Z" fill="#565759"/>
<path d="M87.8892 92.0934L96.7018 91.6537V91.126L87.3967 91.5921V98.8393H87.8892V92.0934Z" fill="#565759"/>
<path d="M87.8892 70.2375L96.7018 68.8126V68.2322L87.3967 69.7449V76.9833L87.8892 76.9217V70.2375Z" fill="#565759"/>
<path d="M87.8892 81.1609L96.7018 80.2286V79.6833L87.3967 80.6684V87.9155L87.8892 87.8804V81.1609Z" fill="#565759"/>
<path d="M77.6869 20.1056L85.5321 16.6404V15.928L77.1944 19.6131V26.4821L77.6869 26.2798V20.1056Z" fill="#565759"/>
<path d="M77.6869 61.5392L85.5321 59.8241V59.2173L77.1944 61.0379V67.9068L77.6869 67.8189V61.5392Z" fill="#565759"/>
<path d="M77.6869 30.4662L85.5321 27.4407V26.7458L77.1944 29.9736V36.8338L77.6869 36.6667V30.4662Z" fill="#565759"/>
<path d="M77.6869 40.8179L85.5321 38.2321V37.5725L77.1944 40.3254V47.1943L77.6869 47.0448V40.8179Z" fill="#565759"/>
<path d="M114.055 105.277H72.9024V108.479H114.055V105.277Z" fill="#727477"/>
<path d="M180 105.277H113.94V108.479H180V105.277Z" fill="url(#paint7_linear)"/>
<defs>
<linearGradient id="paint0_linear" x1="1.52155" y1="53.6324" x2="40.2902" y2="53.6324" gradientUnits="userSpaceOnUse">
<stop stop-color="#BCBEC0"/>
<stop offset="1" stop-color="#939598"/>
</linearGradient>
<linearGradient id="paint1_linear" x1="40.2727" y1="53.6324" x2="106.192" y2="53.6324" gradientUnits="userSpaceOnUse">
<stop stop-color="white"/>
<stop offset="1" stop-color="#E6E7E8"/>
</linearGradient>
<linearGradient id="paint2_linear" x1="44.248" y1="51.5657" x2="103.026" y2="51.5657" gradientUnits="userSpaceOnUse">
<stop stop-color="#D1D3D4"/>
<stop offset="1" stop-color="#BCBEC0"/>
</linearGradient>
<linearGradient id="paint3_linear" x1="3123.39" y1="494.344" x2="8085.14" y2="494.344" gradientUnits="userSpaceOnUse">
<stop stop-color="#D1D3D4"/>
<stop offset="1" stop-color="#BCBEC0"/>
</linearGradient>
<linearGradient id="paint4_linear" x1="3355.38" y1="6541.54" x2="5065.08" y2="6541.54" gradientUnits="userSpaceOnUse">
<stop stop-color="#BCBEC0"/>
<stop offset="1" stop-color="#939598"/>
</linearGradient>
<linearGradient id="paint5_linear" x1="8595.64" y1="6541.54" x2="13536.3" y2="6541.54" gradientUnits="userSpaceOnUse">
<stop stop-color="white"/>
<stop offset="1" stop-color="#E6E7E8"/>
</linearGradient>
<linearGradient id="paint6_linear" x1="7951.58" y1="5537.38" x2="11883.2" y2="5537.38" gradientUnits="userSpaceOnUse">
<stop stop-color="#D1D3D4"/>
<stop offset="1" stop-color="#BCBEC0"/>
</linearGradient>
<linearGradient id="paint7_linear" x1="8671.99" y1="494.344" x2="13633.7" y2="494.344" gradientUnits="userSpaceOnUse">
<stop stop-color="#D1D3D4"/>
<stop offset="1" stop-color="#BCBEC0"/>
</linearGradient>
</defs>
</svg>
